<svg width="75" height="75" viewBox="0 0 75 75" fill="none" xmlns="http://www.w3.org/2000/svg">
<path d="M33.4031 73.3174L1.70455 41.6093C-0.568182 39.3359 -0.568182 35.6865 1.70455 33.4131L33.4031 1.70506C35.6758 -0.568352 39.3242 -0.568352 41.5969 1.70506L73.2955 33.4131C75.5682 35.6865 75.5682 39.3359 73.2955 41.6093L41.5969 73.3174C39.3242 75.5609 35.6758 75.5609 33.4031 73.3174Z" fill="#1356F1"/>
<path d="M68.0921 33.3832L41.5969 6.88004C39.3242 4.60664 35.6758 4.60664 33.4031 6.88004L6.90789 33.3832C4.63516 35.6566 4.63516 39.306 6.90789 41.5794L33.4031 68.0826C35.6758 70.356 39.3242 70.356 41.5969 68.0826L68.0921 41.5794C70.3648 39.306 70.3648 35.6566 68.0921 33.3832ZM60.4964 41.5794L41.5969 60.4846C39.3242 62.758 35.6758 62.758 33.4031 60.4846L14.5036 41.5794C12.2309 39.306 12.2309 35.6566 14.5036 33.3832L33.4031 14.478C35.6758 12.2046 39.3242 12.2046 41.5969 14.478L60.4964 33.3832C62.7691 35.6566 62.7691 39.306 60.4964 41.5794Z" fill="white"/>
<path d="M49.0431 36.5541C49.0431 39.1266 48.2356 41.4897 46.89 43.4341L44.1687 40.8616C44.9462 39.6052 45.3648 38.1395 45.3648 36.5541C45.3648 31.9474 41.6268 28.2382 37.0514 28.2382C32.4761 28.2382 28.738 31.9773 28.738 36.5541C28.738 41.1607 32.4761 44.8699 37.0514 44.8699C37.5598 44.8699 38.0682 44.8101 38.5466 44.7204L38.3672 48.4595C37.9187 48.5194 37.5 48.5194 37.0215 48.5194C30.3828 48.5194 25.0299 43.135 25.0299 36.5241C25.0299 29.8834 30.4127 24.5289 37.0215 24.5289C43.6902 24.5588 49.0431 29.9432 49.0431 36.5541Z" fill="white"/>
<path d="M39.8026 39.1265L43.1818 41.9085L44.7069 43.3742L48.5945 47.0535L46.1124 49.2372L42.494 45.528L39.8026 48.5791" fill="white"/>
</svg>
